<svg xmlns="http://www.w3.org/2000/svg" xmlns:xlink="http://www.w3.org/1999/xlink" preserveAspectRatio="xMidYMid" width="20" height="20" viewBox="0 0 20 20">
  <defs>
    <style>
      .cls-1 {
        fill: #ff5f07;
        fill-rule: evenodd;
      }
    </style>
  </defs>
  <path d="M10.860,10.000 L7.630,13.229 L9.063,14.635 L13.724,10.000 L9.063,5.365 L7.630,6.771 L10.860,10.000 L10.860,10.000 ZM17.995,10.000 C17.995,12.213 17.213,14.089 15.651,15.651 C14.089,17.214 12.214,17.995 10.001,17.995 C7.813,17.995 5.911,17.214 4.350,15.651 C2.787,14.089 2.006,12.213 2.006,10.000 C2.006,7.812 2.787,5.912 4.350,4.349 C5.911,2.786 7.813,2.005 10.001,2.005 C12.214,2.005 14.089,2.786 15.651,4.349 C17.213,5.912 17.995,7.812 17.995,10.000 L17.995,10.000 ZM1.354,5.000 C0.469,6.536 0.001,8.203 0.001,10.000 C0.001,11.823 0.469,13.489 1.354,15.026 C2.240,16.563 3.464,17.787 4.975,18.672 C6.511,19.557 8.178,20.000 10.001,20.000 C11.823,20.000 13.490,19.557 15.027,18.672 C16.563,17.787 17.761,16.563 18.672,15.026 C19.532,13.489 20.000,11.823 20.000,10.000 C20.000,8.203 19.532,6.536 18.672,5.000 C17.761,3.464 16.563,2.240 15.027,1.355 C13.490,0.468 11.823,0.000 10.001,0.000 C8.178,0.000 6.511,0.468 4.975,1.355 C3.464,2.240 2.240,3.464 1.354,5.000 L1.354,5.000 Z" class="cls-1"/>
</svg>
